<?xml version="1.0" encoding="utf-8"?>
<!-- Generator: Adobe Illustrator 22.0.1, SVG Export Plug-In . SVG Version: 6.00 Build 0)  -->
<svg version="1.1" id="Layer_1" xmlns="http://www.w3.org/2000/svg" xmlns:xlink="http://www.w3.org/1999/xlink" x="0px" y="0px"
	 viewBox="0 0 172.4 176.6" style="enable-background:new 0 0 172.4 176.6;" xml:space="preserve">
<style type="text/css">
	.st0{fill:#5B6670;}
	.st1{fill:#EC8D53;}
</style>
<path class="st0" d="M114.2,14.4c-2.4-0.9-5,0.3-5.9,2.6c-0.9,2.4,0.3,5,2.6,5.9c20.8,8,35.8,24.4,42.5,44l-28.3,7.6
	c-1.8-4.7-4.4-9-7.8-12.9c-7.6-8.7-18.2-14-29.7-14.8c-11.5-0.8-22.3,3-30.5,9.8L36.9,36.8c9.5-8.5,21.2-14.6,33.8-17.2
	c-1.2-2.8-1.5-6-0.8-9.1c-29.6,5.8-54.6,28-63,58C4.1,78.5,3.3,88.8,4.5,99.1c0.3,2.3,2.2,4.1,4.5,4.1c0.2,0,0.3,0,0.5,0
	c2.5-0.3,4.3-2.5,4-5c-1-9.1-0.3-18.3,2.2-27.3c2.9-10.4,8.1-19.7,14.8-27.6l20.2,19.8C45.4,69.7,42,78,41.4,87
	c-1.3,18.9,9.8,35.9,26.4,42.9l-8.3,27.5c-12.1-4.6-22.7-12.4-30.7-22.4c-2,2.4-4.7,4.1-7.8,4.9c10.6,13.7,25.3,23.7,42.3,28.4
	c7.3,2,14.6,3,21.9,3c17.4,0,34.5-5.7,48.9-16.6c2-1.5,2.4-4.4,0.9-6.4c-1.5-2-4.4-2.4-6.4-0.9c-17.5,13.2-39.4,17.8-60.5,12.6
	l8.3-27.5c1.7,0.3,3.4,0.6,5.1,0.7c1,0.1,2,0.1,3,0.1c22.7,0,41.7-17.7,43.2-40.4c0.2-3.3,0.1-6.5-0.4-9.7l28.3-7.6
	c2.2,10.8,1.9,22.3-1.3,33.7c-0.6,2.2-1.4,4.4-2.2,6.6c1.6,0.3,3.1,0.8,4.5,1.6c1.4,0.8,2.5,1.7,3.6,2.7c1.1-2.8,2.1-5.6,2.9-8.5
	C174.6,71.3,153.5,29.4,114.2,14.4z M119.7,92.4c-1.3,19.2-18.1,34-37.5,32.7c-1.1-0.1-2.2-0.2-3.3-0.4c-3.1-0.5-6-1.4-8.7-2.7
	c-13-5.9-21.7-19.4-20.6-34.4c0.5-7,3-13.4,7-18.7c1.8-2.4,4-4.6,6.4-6.5c6-4.7,13.5-7.5,21.6-7.5c0.8,0,1.6,0,2.5,0.1
	c9.4,0.6,17.9,4.9,24.1,12c2.5,2.9,4.5,6.2,6,9.7c1.2,2.8,2,5.8,2.4,8.8C119.8,87.7,119.9,90.1,119.7,92.4z"/>
<path class="st1" d="M111.4,66.7c-6.2-7.1-14.8-11.4-24.3-12.1c-0.8-0.1-1.7-0.1-2.5-0.1c-18.5,0-34,14.5-35.3,33
	c-1.3,19.5,13.4,36.4,32.9,37.8c19.6,1.4,36.5-13.6,37.8-32.9C120.6,83,117.6,73.9,111.4,66.7z M84.8,111.7c-5.3,0-9.6,0.5-9.6-2.5
	l4.2-24c-2.4-1.7-3.9-4.5-3.9-7.6c0-5.1,4.2-9.3,9.3-9.3c5.1,0,9.3,4.2,9.3,9.3c0,3.1-1.6,5.9-3.9,7.6l4.3,23.8c0,0.1,0,0.2,0,0.2
	C94.4,112.2,90.1,111.7,84.8,111.7z"/>
<g>
	<path class="st1" d="M84.9,2c-4.3,0-8.2,2.3-10.3,6c-3.1,5.7-1.1,12.8,4.6,16c1.7,1,3.7,1.5,5.7,1.5c4.3,0,8.2-2.3,10.3-6
		c3.1-5.7,1.1-12.8-4.6-16C88.9,2.5,86.9,2,84.9,2z"/>
</g>
<g>
	<path class="st1" d="M17.2,113.3c-4.3,0-8.2,2.3-10.3,6c-3.1,5.7-1.1,12.8,4.6,16c1.7,1,3.7,1.5,5.7,1.5c4.3,0,8.2-2.3,10.3-6
		c3.1-5.7,1.1-12.8-4.6-16C21.2,113.8,19.2,113.3,17.2,113.3z"/>
</g>
<g>
	<path class="st1" d="M149.4,119.3c-4.3,0-8.2,2.3-10.3,6c-3.1,5.7-1.1,12.8,4.6,16c1.7,1,3.7,1.5,5.7,1.5c4.3,0,8.2-2.3,10.3-6
		c3.1-5.7,1.1-12.8-4.6-16C153.4,119.8,151.4,119.3,149.4,119.3z"/>
</g>
</svg>
