<?xml version="1.0" encoding="UTF-8"?>
<svg width="330px" height="330px" viewBox="0 0 330 330" version="1.1" xmlns="http://www.w3.org/2000/svg" xmlns:xlink="http://www.w3.org/1999/xlink">
    <!-- Generator: Sketch 42 (36781) - http://www.bohemiancoding.com/sketch -->
    <title>passport</title>
    <desc>Created with Sketch.</desc>
    <defs>
        <path d="M193.718713,149.098032 C190.380336,144.576452 183.920033,143.672676 179.492215,147.131307 C169.267818,155.116014 156.418165,159.8795 142.476377,159.8795 C125.104602,159.8795 109.428511,152.482922 98.4137528,140.673577 C86.146093,152.323749 78.4939617,168.799458 78.4939617,187.065633 C78.4939617,217.590793 126.219191,269.598852 139.146982,281.32906 C140.962118,282.976541 143.724788,282.976541 145.540822,281.32906 C158.468613,269.598852 206.192944,217.590793 206.192944,187.065633 C206.192944,172.848016 201.558555,159.714932 193.718713,149.098032" id="path-1"></path>
        <filter x="-50%" y="-50%" width="200%" height="200%" filterUnits="objectBoundingBox" id="filter-2">
            <feOffset dx="0" dy="2" in="SourceAlpha" result="shadowOffsetOuter1"></feOffset>
            <feGaussianBlur stdDeviation="2" in="shadowOffsetOuter1" result="shadowBlurOuter1"></feGaussianBlur>
            <feColorMatrix values="0 0 0 0 0   0 0 0 0 0   0 0 0 0 0  0 0 0 0.3 0" type="matrix" in="shadowBlurOuter1"></feColorMatrix>
        </filter>
        <path d="M181.953022,81.8019434 C181.953022,103.631965 164.278575,121.327996 142.477186,121.327996 C120.674898,121.327996 103.000451,103.631965 103.000451,81.8019434 C103.000451,59.9719218 120.674898,42.2758903 142.477186,42.2758903 C164.278575,42.2758903 181.953022,59.9719218 181.953022,81.8019434" id="path-3"></path>
        <filter x="-50%" y="-50%" width="200%" height="200%" filterUnits="objectBoundingBox" id="filter-4">
            <feOffset dx="0" dy="2" in="SourceAlpha" result="shadowOffsetOuter1"></feOffset>
            <feGaussianBlur stdDeviation="2" in="shadowOffsetOuter1" result="shadowBlurOuter1"></feGaussianBlur>
            <feColorMatrix values="0 0 0 0 0   0 0 0 0 0   0 0 0 0 0  0 0 0 0.3 0" type="matrix" in="shadowBlurOuter1"></feColorMatrix>
        </filter>
    </defs>
    <g id="Passport" stroke="none" stroke-width="1" fill="none" fill-rule="evenodd">
        <g id="passport">
            <g id="Page-1" transform="translate(23.000000, 3.000000)">
                <path d="M11.5456267,73.5123805 L131.234121,3.87933286 C138.105771,-0.117966664 146.591374,-0.117966664 153.462126,3.87933286 L273.151518,73.5123805 C279.965687,77.4773059 284.159091,84.7731644 284.159091,92.6643463 L284.159091,232.175945 C284.159091,240.067127 279.965687,247.362985 273.151518,251.327911 L153.462126,320.960958 C146.591374,324.958258 138.105771,324.958258 131.234121,320.960958 L11.5456267,251.327911 C4.73055956,247.362985 0.53715569,240.067127 0.53715569,232.175945 L0.53715569,92.6643463 C0.53715569,84.7731644 4.73055956,77.4773059 11.5456267,73.5123805" id="Fill-4" stroke="#FFFFFF" stroke-width="4" fill="#1BB796"></path>
                <g id="Fill-6">
                    <use fill="black" fill-opacity="1" filter="url(#filter-2)" xlink:href="#path-1"></use>
                    <use fill="#FFFFFF" fill-rule="evenodd" xlink:href="#path-1"></use>
                </g>
                <path d="M193.727874,149.098032 C190.389497,144.576452 183.929194,143.672676 179.501376,147.131307 C178.863699,147.629508 178.215243,148.115119 177.556909,148.58814 C178.947225,156.653782 179.689985,165.125899 179.689985,173.865102 C179.689985,204.765262 159.005879,249.978361 141.183239,282.41539 C142.683129,282.795786 144.330313,282.436074 145.549983,281.32906 C158.477774,269.598852 206.202105,217.590793 206.202105,187.065633 C206.202105,172.848016 201.567716,159.714932 193.727874,149.098032" id="Fill-8" fill="#A9D4CA"></path>
                <path d="M189.371382,145.405588 C195.082638,156.417272 198.364433,169.293163 198.364433,183.052146 C198.364433,212.322811 165.196216,258.76073 146.67213,281.21665 C159.771465,269.277809 207.202105,217.498167 207.202105,187.065633 C207.202105,172.848016 202.567716,159.714932 194.727874,149.098032 C193.352825,147.234724 191.44608,145.988322 189.371382,145.405588 Z" id="Fill-10" fill="#0A9A7B"></path>
                <g id="Fill-12">
                    <use fill="black" fill-opacity="1" filter="url(#filter-4)" xlink:href="#path-3"></use>
                    <use fill="#FFFFFF" fill-rule="evenodd" xlink:href="#path-3"></use>
                </g>
                <path d="M171.744343,152.275998 C172.438603,152.29758 144.935837,166.625808 116.149633,162.853329 C87.0975799,159.045777 92.9579269,137.401907 108.902562,134.869534 C122.238107,132.750831 138.986574,151.259811 171.744343,152.275998" id="Fill-14" fill="#34485E"></path>
                <path d="M167.861066,154.263406 C168.411624,154.280493 146.638975,165.97383 123.826283,162.984624 C100.802529,159.967539 105.446798,142.814673 118.082694,140.80748 C128.651078,139.129424 141.9013,153.458551 167.861066,154.263406" id="Fill-16" fill="#1BB796"></path>
            </g>
        </g>
    </g>
</svg>